<svg width="7" height="10" viewBox="0 0 7 10" xmlns="http://www.w3.org/2000/svg">
<path fill-rule="evenodd" clip-rule="evenodd" d="M0.624839 9.39436C0.437355 9.21911 0.332032 8.98146 0.332032 8.73367C0.332032 8.48587 0.437355 8.24822 0.624839 8.07297L3.91807 4.99566L0.62484 1.91834C0.442669 1.7421 0.341867 1.50604 0.344146 1.26102C0.346424 1.01599 0.4516 0.781608 0.637022 0.608344C0.822443 0.435079 1.07327 0.336799 1.33549 0.33467C1.5977 0.332541 1.85032 0.426733 2.03894 0.59696L6.03922 4.33497C6.22671 4.51021 6.33203 4.74786 6.33203 4.99566C6.33203 5.24346 6.22671 5.48111 6.03922 5.65635L2.03894 9.39436C1.8514 9.56955 1.59707 9.66797 1.33189 9.66797C1.06671 9.66797 0.81238 9.56955 0.624839 9.39436Z" />
</svg>
