<svg width="8" height="12" viewBox="0 0 8 12" fill="none" xmlns="http://www.w3.org/2000/svg">
<path fill-rule="evenodd" clip-rule="evenodd" d="M7.25022 11.6493C7.47518 11.4242 7.60156 11.1191 7.60156 10.8009C7.60156 10.4827 7.47518 10.1775 7.25022 9.95248L3.29862 6.00088L7.25022 2.04928C7.46881 1.82296 7.58976 1.51983 7.58703 1.2052C7.58429 0.890562 7.45809 0.589587 7.2356 0.367097C7.01311 0.144607 6.71214 0.0184045 6.3975 0.0156704C6.08286 0.0129363 5.77974 0.13389 5.55342 0.35248L0.753419 5.15248C0.528453 5.37751 0.402075 5.68268 0.402075 6.00088C0.402075 6.31908 0.528453 6.62425 0.753419 6.84928L5.55342 11.6493C5.77845 11.8742 6.08362 12.0006 6.40182 12.0006C6.72002 12.0006 7.02519 11.8742 7.25022 11.6493Z" fill="white"/>
</svg>
