<svg width="23" height="19" viewBox="0 0 23 19" fill="none" xmlns="http://www.w3.org/2000/svg">
<path fill-rule="evenodd" clip-rule="evenodd" d="M22.9975 8.04688V10.5492C22.9775 14.9801 17.8332 18.5726 11.4988 18.5726C5.16433 18.5726 0 14.9651 0 10.5243V8.04688H22.995H22.9975Z" fill="#FFC402"/>
<mask id="mask0_1641_440" style="mask-type:luminance" maskUnits="userSpaceOnUse" x="0" y="8" width="23" height="11">
<path d="M22.9975 8.04688V10.5492C22.9775 14.9801 17.8332 18.5726 11.4988 18.5726C5.16433 18.5726 0 14.9651 0 10.5243V8.04688H22.995H22.9975Z" fill="white"/>
</mask>
<g mask="url(#mask0_1641_440)">
<path fill-rule="evenodd" clip-rule="evenodd" d="M22.7803 26.5848V4.04883H22.5508V26.5848H22.7803Z" fill="#D89C05"/>
<path fill-rule="evenodd" clip-rule="evenodd" d="M22.1748 26.5848V4.04883H21.9453V26.5848H22.1748Z" fill="#D89C05"/>
<path fill-rule="evenodd" clip-rule="evenodd" d="M21.4117 26.5848V4.04883H21.0898V26.5848H21.4117Z" fill="#D89C05"/>
<path fill-rule="evenodd" clip-rule="evenodd" d="M20.4244 26.5848V4.04883H20.0352V26.5848H20.4244Z" fill="#D89C05"/>
<path fill-rule="evenodd" clip-rule="evenodd" d="M19.1466 26.5848V4.04883H18.6875V26.5848H19.1466Z" fill="#D89C05"/>
<path fill-rule="evenodd" clip-rule="evenodd" d="M17.7799 26.5848V4.04883H17.2734V26.5848H17.7799Z" fill="#D89C05"/>
<path fill-rule="evenodd" clip-rule="evenodd" d="M16.3639 26.5848V4.04883H15.8125V26.5848H16.3639Z" fill="#D89C05"/>
<path fill-rule="evenodd" clip-rule="evenodd" d="M14.9049 26.5848V4.04883H14.3086V26.5848H14.9049Z" fill="#D89C05"/>
<path fill-rule="evenodd" clip-rule="evenodd" d="M13.4274 26.5848V4.04883H12.7812V26.5848H13.4274Z" fill="#D89C05"/>
<path fill-rule="evenodd" clip-rule="evenodd" d="M11.8761 26.5848V4.04883H11.1875V26.5848H11.8761Z" fill="#D89C05"/>
<path fill-rule="evenodd" clip-rule="evenodd" d="M10.2804 26.5848V4.04883H9.63672V26.5848H10.2804Z" fill="#D89C05"/>
<path fill-rule="evenodd" clip-rule="evenodd" d="M8.72908 26.5848V4.04883H8.13281V26.5848H8.72908Z" fill="#D89C05"/>
<path fill-rule="evenodd" clip-rule="evenodd" d="M7.24667 26.5848V4.04883H6.69531V26.5848H7.24667Z" fill="#D89C05"/>
<path fill-rule="evenodd" clip-rule="evenodd" d="M5.7838 26.5848V4.04883H5.27734V26.5848H5.7838Z" fill="#D89C05"/>
<path fill-rule="evenodd" clip-rule="evenodd" d="M4.3653 26.5848V4.04883H3.90625V26.5848H4.3653Z" fill="#D89C05"/>
<path fill-rule="evenodd" clip-rule="evenodd" d="M3.0206 26.5848V4.04883H2.62891V26.5848H3.0206Z" fill="#D89C05"/>
<path fill-rule="evenodd" clip-rule="evenodd" d="M1.96246 26.5848V4.04883H1.64062V26.5848H1.96246Z" fill="#D89C05"/>
<path fill-rule="evenodd" clip-rule="evenodd" d="M1.08358 26.5848V4.04883H0.851562V26.5848H1.08358Z" fill="#D89C05"/>
<path fill-rule="evenodd" clip-rule="evenodd" d="M0.499057 26.5848V4.04883H0.269531V26.5848H0.499057Z" fill="#D89C05"/>
</g>
<path fill-rule="evenodd" clip-rule="evenodd" d="M22.9975 8.04838C22.9975 12.4892 17.8456 16.0968 11.4988 16.0968C5.15186 16.0968 0 12.4892 0 8.04838C0 3.60755 5.15436 0 11.5012 0C17.8481 0 23 3.60755 23 8.04838H22.9975Z" fill="#FFE44E"/>
<path fill-rule="evenodd" clip-rule="evenodd" d="M20.7095 8.04992C20.7095 11.3506 16.588 14.0276 11.511 14.0276C6.43399 14.0276 2.3125 11.3481 2.3125 8.04992C2.3125 4.75173 6.43399 2.07227 11.511 2.07227C16.588 2.07227 20.7095 4.75173 20.7095 8.04992Z" fill="#EB9F06"/>
<mask id="mask1_1641_440" style="mask-type:luminance" maskUnits="userSpaceOnUse" x="2" y="2" width="19" height="13">
<path d="M20.6861 8.04406C20.6861 11.3447 16.5646 14.0217 11.4876 14.0217C6.41055 14.0217 2.28906 11.3422 2.28906 8.04406C2.28906 4.74587 6.41055 2.06641 11.4876 2.06641C16.5646 2.06641 20.6861 4.74587 20.6861 8.04406Z" fill="white"/>
</mask>
<g mask="url(#mask1_1641_440)">
<path fill-rule="evenodd" clip-rule="evenodd" d="M24.6495 29.9685C24.6495 46.0777 5.96808 59.1532 -17.0444 59.1532C-40.0569 59.1532 -58.7383 46.0752 -58.7383 29.9685C-58.7383 13.8617 -40.0569 0.78125 -17.0444 0.78125C5.96808 0.78125 24.6495 13.8592 24.6495 29.966V29.9685Z" fill="#E59D0C"/>
<path fill-rule="evenodd" clip-rule="evenodd" d="M20.5264 8.49501C20.5264 11.8132 16.4198 14.5076 11.3628 14.5076C6.30574 14.5076 2.19922 11.8132 2.19922 8.49501C2.19922 5.17686 6.30574 2.48242 11.3628 2.48242C16.4198 2.48242 20.5264 5.17686 20.5264 8.49501Z" fill="#FFD111"/>
</g>
<mask id="mask2_1641_440" style="mask-type:luminance" maskUnits="userSpaceOnUse" x="2" y="2" width="19" height="13">
<mask id="mask3_1641_440" style="mask-type:luminance" maskUnits="userSpaceOnUse" x="2" y="2" width="19" height="13">
<path d="M20.5732 8.48719C20.5732 11.8053 16.4667 14.4998 11.4097 14.4998C6.35261 14.4998 2.24609 11.8053 2.24609 8.48719C2.24609 5.16905 6.35261 2.47461 11.4097 2.47461C16.4667 2.47461 20.5732 5.16905 20.5732 8.48719Z" fill="white"/>
</mask>
<g mask="url(#mask3_1641_440)">
<path d="M20.7329 8.04211C20.7329 11.3428 16.6115 14.0198 11.5344 14.0198C6.45743 14.0198 2.33594 11.3403 2.33594 8.04211C2.33594 4.74392 6.45743 2.06445 11.5344 2.06445C16.6115 2.06445 20.7329 4.74392 20.7329 8.04211Z" fill="white"/>
</g>
</mask>
<g mask="url(#mask2_1641_440)">
<path fill-rule="evenodd" clip-rule="evenodd" d="M24.6534 29.9665C24.6534 46.0757 5.97198 59.1512 -17.0405 59.1512C-40.053 59.1512 -58.7344 46.0732 -58.7344 29.9665C-58.7344 13.8598 -40.053 0.779297 -17.0405 0.779297C5.97198 0.779297 24.6534 13.8573 24.6534 29.964V29.9665Z" fill="#FFC402"/>
</g>
<path d="M11.3942 12.6275C14.697 12.6275 17.3744 10.6415 17.3744 8.1917C17.3744 5.74185 14.697 3.75586 11.3942 3.75586C8.09147 3.75586 5.41406 5.74185 5.41406 8.1917C5.41406 10.6415 8.09147 12.6275 11.3942 12.6275Z" fill="#D89C05"/>
<path d="M9.26965 10.8993C11.2868 10.8993 12.9221 9.68624 12.9221 8.18987C12.9221 6.69351 11.2868 5.48047 9.26965 5.48047C7.25245 5.48047 5.61719 6.69351 5.61719 8.18987C5.61719 9.68624 7.25245 10.8993 9.26965 10.8993Z" fill="#FFD111"/>
<path d="M7.67793 8.1912C7.67793 7.47517 6.98436 6.9313 6.0438 6.87891C5.76937 7.26311 5.61719 7.7072 5.61719 8.1912C5.61719 8.6727 5.76937 9.11928 6.0438 9.50349C6.98436 9.45359 7.67793 8.90722 7.67793 8.1912Z" fill="#D89C05"/>
</svg>
