<svg width="18" height="16" viewBox="0 0 18 16" fill="none" xmlns="http://www.w3.org/2000/svg">
<path d="M17.8615 10.7882L17.2338 9.81771C17.2064 9.77426 17.1742 9.73563 17.1404 9.70022V5.76999V5.76838C17.1404 4.73835 16.5675 3.81132 15.6453 3.34941L11.3561 1.20404C9.61149 0.331727 7.52891 0.331727 5.78428 1.20404L1.49517 3.34941C0.572963 3.80971 0 4.73674 0 5.76838C0 6.80003 0.572963 7.72545 1.49517 8.18736L2.43827 8.65892V11.9743C2.43827 13.4969 3.52626 14.7909 5.02625 15.0516L6.25261 15.264C6.97042 15.3896 7.69465 15.4507 8.41729 15.4507C9.13992 15.4507 9.8642 15.3879 10.582 15.264L11.8084 15.0516C13.3084 14.7909 14.3963 13.4969 14.3963 11.9743V8.8086L15.642 8.18575C15.7129 8.15034 15.7821 8.1101 15.8497 8.06987V9.70183C15.8159 9.73885 15.7837 9.77747 15.7563 9.81932L15.1286 10.7898C14.9516 11.0634 14.9387 11.3998 15.0949 11.6863C15.251 11.9727 15.539 12.1449 15.8657 12.1449H17.1195C17.4462 12.1449 17.7343 11.9743 17.8904 11.6863C17.9628 11.5527 17.9998 11.4094 17.9998 11.2662C18.0031 11.0988 17.9564 10.9363 17.8615 10.7882ZM13.112 11.9727C13.112 12.8676 12.4715 13.6288 11.5911 13.7817L10.3647 13.9942C9.07395 14.2179 7.7655 14.2179 6.47473 13.9942L5.24833 13.7817C4.36636 13.6288 3.72743 12.8676 3.72743 11.9727V9.30108L5.78589 10.3295C6.65821 10.7657 7.61422 10.9829 8.57183 10.9829C9.52944 10.9829 10.4854 10.7657 11.3577 10.3295L13.1136 9.45237V11.9727H13.112ZM15.0691 7.03501L10.78 9.18038C9.39585 9.87243 7.74458 9.87243 6.36047 9.18038L2.07132 7.03501C1.58044 6.79037 1.28916 6.31559 1.28916 5.76838C1.28916 5.22118 1.58205 4.7464 2.07132 4.50176L6.36047 2.358C7.74458 1.66595 9.39585 1.66595 10.78 2.358L15.0691 4.50176C15.5583 4.7464 15.8513 5.21957 15.8513 5.76838V5.76999C15.8529 6.31559 15.56 6.78876 15.0691 7.03501Z" fill="white"/>
</svg>
