<svg width="16" height="20" viewBox="0 0 16 20" xmlns="http://www.w3.org/2000/svg">
<path d="M13.5212 19.1666H12.0284C10.693 19.1666 9.607 18.0806 9.607 16.7452V12.6545C9.607 12.24 9.27123 11.9042 8.85678 11.9042H7.13953C6.72509 11.9042 6.3893 12.24 6.3893 12.6545V16.7452C6.3893 18.0806 5.30331 19.1666 3.96789 19.1666H2.47513C1.1397 19.1666 0.0537109 18.0806 0.0537109 16.7452V9.50201C0.0537109 7.91523 0.660018 6.4148 1.76136 5.27316L4.68357 2.24159C5.55851 1.33404 6.73659 0.833252 7.99911 0.833252C9.26163 0.833252 10.4378 1.33404 11.3147 2.24159L14.2369 5.27316C15.3382 6.4148 15.9445 7.91715 15.9445 9.50201V16.7452C15.9426 18.0806 14.8566 19.1666 13.5212 19.1666ZM7.13953 10.3693H8.85678C10.1174 10.3693 11.142 11.3939 11.142 12.6545V16.7452C11.142 17.2344 11.5391 17.6316 12.0284 17.6316H13.5212C14.0105 17.6316 14.4076 17.2344 14.4076 16.7452V9.50201C14.4076 8.31625 13.9548 7.19188 13.1298 6.33805L10.2076 3.30648C9.62426 2.70016 8.83951 2.36822 7.99719 2.36822C7.15679 2.36822 6.37205 2.70208 5.78684 3.30648L2.86462 6.33805C2.04149 7.19188 1.58676 8.31625 1.58676 9.50201V16.7452C1.58676 17.2344 1.98394 17.6316 2.47321 17.6316H3.96596C4.45524 17.6316 4.85242 17.2344 4.85242 16.7452V12.6545C4.85626 11.3939 5.88085 10.3693 7.13953 10.3693Z" />
</svg>
