<svg width="14" height="14" viewBox="0 0 14 14" fill="none" xmlns="http://www.w3.org/2000/svg">
<path d="M10.565 10.4381H3.4338C2.4239 10.4381 1.55944 9.66514 1.46519 8.67947C1.42479 8.25936 1.51905 7.84732 1.73584 7.48779C2.03746 6.98688 2.19095 6.50482 2.19095 6.05508V5.39258C2.19095 4.0824 2.70803 2.8584 3.64657 1.94545C4.58914 1.02846 5.82794 0.546402 7.13543 0.585451C9.71135 0.655471 11.8079 2.84628 11.8079 5.46799V6.05508C11.8079 6.50482 11.9614 6.98688 12.263 7.48779C12.4798 7.84732 12.5727 8.25936 12.5337 8.67947C12.4394 9.66514 11.575 10.4381 10.565 10.4381ZM6.98733 1.65999C6.01513 1.65999 5.10083 2.03298 4.39659 2.71702C3.66812 3.42529 3.26683 4.37595 3.26683 5.39124V6.05373C3.26683 6.70276 3.06216 7.37199 2.65685 8.04256C2.5599 8.2028 2.51817 8.38728 2.53702 8.57579C2.57876 9.01476 2.97329 9.35948 3.4338 9.35948H10.565C11.0256 9.35948 11.4201 9.01476 11.4619 8.57579C11.4794 8.38728 11.4376 8.2028 11.342 8.04256C10.9367 7.37199 10.732 6.70276 10.732 6.05373V5.46664C10.732 3.42395 9.10541 1.71654 7.10581 1.66133C7.06541 1.65999 7.02638 1.65999 6.98733 1.65999Z" fill="white"/>
<path d="M6.99852 13.417C5.91187 13.417 4.94373 12.7262 4.59093 11.6988C4.49398 11.4174 4.64479 11.1117 4.92487 11.0147C5.2063 10.9178 5.51197 11.0686 5.60892 11.35C5.81225 11.9425 6.36969 12.3411 6.99717 12.3411C7.62466 12.3411 8.18213 11.9425 8.38546 11.35C8.48241 11.0686 8.78808 10.9191 9.06951 11.0147C9.35094 11.1117 9.5004 11.4174 9.4048 11.6988C9.052 12.7262 8.08518 13.417 6.99852 13.417Z" fill="white"/>
</svg>
