<svg width="14" height="14" viewBox="0 0 14 14" fill="none" xmlns="http://www.w3.org/2000/svg">
<path d="M13.442 12.36L9.96872 8.88672C11.5358 6.79278 11.3691 3.80225 9.46679 1.89796C7.38055 -0.188318 3.98393 -0.188318 1.89769 1.89796C-0.188553 3.98425 -0.188553 7.38092 1.89769 9.4672C2.94177 10.5113 4.31153 11.0324 5.6832 11.0324C6.81157 11.0324 7.93994 10.678 8.88632 9.96913L12.3596 13.4424C12.509 13.5919 12.7044 13.6666 12.9017 13.6666C13.0971 13.6666 13.2944 13.5919 13.4439 13.4424C13.7408 13.1436 13.7408 12.6589 13.442 12.36ZM2.98009 8.38479C1.49156 6.89623 1.49156 4.47277 2.98009 2.98229C3.72531 2.23706 4.70234 1.8654 5.68128 1.8654C6.66023 1.8654 7.63725 2.23706 8.38247 2.98229C9.87101 4.47085 9.87101 6.89431 8.38247 8.38479C6.89394 9.87526 4.46862 9.87335 2.98009 8.38479Z" fill="white"/>
</svg>
