<svg width="18" height="18" viewBox="0 0 18 18" fill="none" xmlns="http://www.w3.org/2000/svg">
<path d="M3.59978 17.3334C3.05446 17.3334 2.55372 17.1895 2.14017 16.9057C1.71648 16.6138 1.17928 16.034 1.03535 14.9291C0.802221 12.9627 0.684644 10.972 0.682617 9.00158C0.682617 7.03113 0.800191 5.04041 1.03332 3.08212C1.17928 1.96513 1.71648 1.38737 2.14017 1.09546C2.74631 0.67785 3.54908 0.560271 4.39646 0.76502C7.54674 1.5232 13.9325 4.99581 16.4016 7.03518C16.9773 7.51158 17.3118 8.22313 17.3159 8.99144V9.01171C17.3118 9.778 16.9793 10.4916 16.4016 10.968C13.9325 13.0073 7.54472 16.48 4.39646 17.2381C4.12481 17.301 3.85723 17.3334 3.59978 17.3334ZM3.59572 2.28745C3.38083 2.28745 3.19635 2.33611 3.0585 2.43139C2.7828 2.62195 2.6794 2.99901 2.64291 3.28282C2.41992 5.1661 2.30439 7.09397 2.30439 8.99955C2.30439 10.9072 2.41789 12.833 2.64291 14.7264C2.6794 15.0001 2.78077 15.3792 3.0585 15.5677C3.2815 15.7218 3.62206 15.7522 4.01737 15.6569C6.84938 14.9758 13.1033 11.5842 15.3698 9.71313C15.5704 9.5469 15.6921 9.28133 15.6941 9.00158V8.99347C15.6921 8.71777 15.5704 8.45018 15.3698 8.28395C13.1033 6.4108 6.84938 3.02131 4.01737 2.34016C3.86736 2.3057 3.72749 2.28745 3.59572 2.28745Z" fill="white" fill-opacity="0.5"/>
</svg>
